<svg xmlns="http://www.w3.org/2000/svg" xmlns:xlink="http://www.w3.org/1999/xlink" contentStyleType="text/css" height="559px" preserveAspectRatio="none" style="width:858px;height:559px;background:#FFFFFF;" version="1.1" viewBox="0 0 858 559" width="858px" zoomAndPan="magnify"><defs/><g><!--cluster 51380bd5a5ce10b1393b79f9e6d4cf8b--><g id="cluster_51380bd5a5ce10b1393b79f9e6d4cf8b"><path d="M8.5,6 L190.5,6 A3.75,3.75 0 0 1 193,8.5 L200,28.2969 L200.5,28.2969 A2.5,2.5 0 0 1 203,30.7969 L203,133.39 A2.5,2.5 0 0 1 200.5,135.89 L8.5,135.89 A2.5,2.5 0 0 1 6,133.39 L6,8.5 A2.5,2.5 0 0 1 8.5,6 " fill="none" style="stroke:#000000;stroke-width:1.5;"/><line style="stroke:#000000;stroke-width:1.5;" x1="6" x2="200" y1="28.2969" y2="28.2969"/><text fill="#000000" font-family="sans-serif" font-size="14" font-weight="bold" lengthAdjust="spacing" textLength="181" x="10" y="20.9951">pdf_rendering_service/</text></g><!--cluster f444835977c0295a212cc275b5118012--><g id="cluster_f444835977c0295a212cc275b5118012"><path d="M229.5,6 L258.5,6 A3.75,3.75 0 0 1 261,8.5 L268,28.2969 L848.5,28.2969 A2.5,2.5 0 0 1 851,30.7969 L851,550.06 A2.5,2.5 0 0 1 848.5,552.56 L229.5,552.56 A2.5,2.5 0 0 1 227,550.06 L227,8.5 A2.5,2.5 0 0 1 229.5,6 " fill="none" style="stroke:#000000;stroke-width:1.5;"/><line style="stroke:#000000;stroke-width:1.5;" x1="227" x2="268" y1="28.2969" y2="28.2969"/><text fill="#000000" font-family="sans-serif" font-size="14" font-weight="bold" lengthAdjust="spacing" textLength="28" x="231" y="20.9951">api/</text></g><!--cluster 3b46e1c454fa5354cfe2a43bc10d3d47--><g id="cluster_3b46e1c454fa5354cfe2a43bc10d3d47"><path d="M253.5,283.78 L299.5,283.78 A3.75,3.75 0 0 1 302,286.28 L309,306.0769 L537.5,306.0769 A2.5,2.5 0 0 1 540,308.5769 L540,411.17 A2.5,2.5 0 0 1 537.5,413.67 L253.5,413.67 A2.5,2.5 0 0 1 251,411.17 L251,286.28 A2.5,2.5 0 0 1 253.5,283.78 " fill="none" style="stroke:#000000;stroke-width:1.5;"/><line style="stroke:#000000;stroke-width:1.5;" x1="251" x2="309" y1="306.0769" y2="306.0769"/><text fill="#000000" font-family="sans-serif" font-size="14" font-weight="bold" lengthAdjust="spacing" textLength="45" x="255" y="298.7751">tests/</text></g><!--entity 82ba62d3bf4d445dfe113a01a1b29677--><g id="elem_82ba62d3bf4d445dfe113a01a1b29677"><rect fill="#F1F1F1" height="78.8906" rx="2.5" ry="2.5" style="stroke:#181818;stroke-width:0.5;" width="70" x="69" y="41"/><rect fill="#F1F1F1" height="10" style="stroke:#181818;stroke-width:0.5;" width="15" x="119" y="46"/><rect fill="#F1F1F1" height="2" style="stroke:#181818;stroke-width:0.5;" width="4" x="117" y="48"/><rect fill="#F1F1F1" height="2" style="stroke:#181818;stroke-width:0.5;" width="4" x="117" y="52"/><text fill="#000000" font-family="sans-serif" font-size="14" font-weight="bold" lengthAdjust="spacing" textLength="30" x="84" y="73.9951">urls</text><text fill="#000000" font-family="sans-serif" font-size="14" lengthAdjust="spacing" textLength="4" x="84" y="90.292">&#160;</text><text fill="#000000" font-family="sans-serif" font-size="14" lengthAdjust="spacing" textLength="4" x="84" y="106.5889">&#160;</text></g><!--entity f91ac9bfce549e2bdaca89d889f80ade--><g id="elem_f91ac9bfce549e2bdaca89d889f80ade"><rect fill="#F1F1F1" height="78.8906" rx="2.5" ry="2.5" style="stroke:#181818;stroke-width:0.5;" width="70" x="652" y="41"/><rect fill="#F1F1F1" height="10" style="stroke:#181818;stroke-width:0.5;" width="15" x="702" y="46"/><rect fill="#F1F1F1" height="2" style="stroke:#181818;stroke-width:0.5;" width="4" x="700" y="48"/><rect fill="#F1F1F1" height="2" style="stroke:#181818;stroke-width:0.5;" width="4" x="700" y="52"/><text fill="#000000" font-family="sans-serif" font-size="14" font-weight="bold" lengthAdjust="spacing" textLength="30" x="667" y="73.9951">urls</text><text fill="#000000" font-family="sans-serif" font-size="14" lengthAdjust="spacing" textLength="4" x="667" y="90.292">&#160;</text><text fill="#000000" font-family="sans-serif" font-size="14" lengthAdjust="spacing" textLength="4" x="667" y="106.5889">&#160;</text></g><!--entity 1990cb79880525ed0375a33636ba8160--><g id="elem_1990cb79880525ed0375a33636ba8160"><rect fill="#F1F1F1" height="78.8906" rx="2.5" ry="2.5" style="stroke:#181818;stroke-width:0.5;" width="86" x="659" y="179.89"/><rect fill="#F1F1F1" height="10" style="stroke:#181818;stroke-width:0.5;" width="15" x="725" y="184.89"/><rect fill="#F1F1F1" height="2" style="stroke:#181818;stroke-width:0.5;" width="4" x="723" y="186.89"/><rect fill="#F1F1F1" height="2" style="stroke:#181818;stroke-width:0.5;" width="4" x="723" y="190.89"/><text fill="#000000" font-family="sans-serif" font-size="14" font-weight="bold" lengthAdjust="spacing" textLength="46" x="674" y="212.8851">views</text><text fill="#000000" font-family="sans-serif" font-size="14" lengthAdjust="spacing" textLength="4" x="674" y="229.182">&#160;</text><text fill="#000000" font-family="sans-serif" font-size="14" lengthAdjust="spacing" textLength="4" x="674" y="245.4789">&#160;</text></g><!--entity e0848800f44bd4f4c9f372d93da60f75--><g id="elem_e0848800f44bd4f4c9f372d93da60f75"><rect fill="#F1F1F1" height="78.8906" rx="2.5" ry="2.5" style="stroke:#181818;stroke-width:0.5;" width="122" x="559" y="318.78"/><rect fill="#F1F1F1" height="10" style="stroke:#181818;stroke-width:0.5;" width="15" x="661" y="323.78"/><rect fill="#F1F1F1" height="2" style="stroke:#181818;stroke-width:0.5;" width="4" x="659" y="325.78"/><rect fill="#F1F1F1" height="2" style="stroke:#181818;stroke-width:0.5;" width="4" x="659" y="329.78"/><text fill="#000000" font-family="sans-serif" font-size="14" font-weight="bold" lengthAdjust="spacing" textLength="82" x="574" y="351.7751">serializers</text><text fill="#000000" font-family="sans-serif" font-size="14" lengthAdjust="spacing" textLength="4" x="574" y="368.072">&#160;</text><text fill="#000000" font-family="sans-serif" font-size="14" lengthAdjust="spacing" textLength="4" x="574" y="384.3689">&#160;</text></g><!--entity d21b01a9f3750cfae7644cd6b0047718--><g id="elem_d21b01a9f3750cfae7644cd6b0047718"><rect fill="#F1F1F1" height="78.8906" rx="2.5" ry="2.5" style="stroke:#181818;stroke-width:0.5;" width="78" x="757" y="41"/><rect fill="#F1F1F1" height="10" style="stroke:#181818;stroke-width:0.5;" width="15" x="815" y="46"/><rect fill="#F1F1F1" height="2" style="stroke:#181818;stroke-width:0.5;" width="4" x="813" y="48"/><rect fill="#F1F1F1" height="2" style="stroke:#181818;stroke-width:0.5;" width="4" x="813" y="52"/><text fill="#000000" font-family="sans-serif" font-size="14" font-weight="bold" lengthAdjust="spacing" textLength="38" x="772" y="73.9951">apps</text><text fill="#000000" font-family="sans-serif" font-size="14" lengthAdjust="spacing" textLength="4" x="772" y="90.292">&#160;</text><text fill="#000000" font-family="sans-serif" font-size="14" lengthAdjust="spacing" textLength="4" x="772" y="106.5889">&#160;</text></g><!--entity 26f33f06e0cde4460b11341622df9b90--><g id="elem_26f33f06e0cde4460b11341622df9b90"><rect fill="#F1F1F1" height="78.8906" rx="2.5" ry="2.5" style="stroke:#181818;stroke-width:0.5;" width="97" x="619.5" y="457.67"/><rect fill="#F1F1F1" height="10" style="stroke:#181818;stroke-width:0.5;" width="15" x="696.5" y="462.67"/><rect fill="#F1F1F1" height="2" style="stroke:#181818;stroke-width:0.5;" width="4" x="694.5" y="464.67"/><rect fill="#F1F1F1" height="2" style="stroke:#181818;stroke-width:0.5;" width="4" x="694.5" y="468.67"/><text fill="#000000" font-family="sans-serif" font-size="14" font-weight="bold" lengthAdjust="spacing" textLength="57" x="634.5" y="490.6651">models</text><text fill="#000000" font-family="sans-serif" font-size="14" lengthAdjust="spacing" textLength="4" x="634.5" y="506.962">&#160;</text><text fill="#000000" font-family="sans-serif" font-size="14" lengthAdjust="spacing" textLength="4" x="634.5" y="523.2589">&#160;</text></g><!--entity b88f5d725fc26261337f5f96d43c3f30--><g id="elem_b88f5d725fc26261337f5f96d43c3f30"><rect fill="#F1F1F1" height="78.8906" rx="2.5" ry="2.5" style="stroke:#181818;stroke-width:0.5;" width="82" x="753" y="318.78"/><rect fill="#F1F1F1" height="10" style="stroke:#181818;stroke-width:0.5;" width="15" x="815" y="323.78"/><rect fill="#F1F1F1" height="2" style="stroke:#181818;stroke-width:0.5;" width="4" x="813" y="325.78"/><rect fill="#F1F1F1" height="2" style="stroke:#181818;stroke-width:0.5;" width="4" x="813" y="329.78"/><text fill="#000000" font-family="sans-serif" font-size="14" font-weight="bold" lengthAdjust="spacing" textLength="42" x="768" y="351.7751">tasks</text><text fill="#000000" font-family="sans-serif" font-size="14" lengthAdjust="spacing" textLength="4" x="768" y="368.072">&#160;</text><text fill="#000000" font-family="sans-serif" font-size="14" lengthAdjust="spacing" textLength="4" x="768" y="384.3689">&#160;</text></g><!--entity 657357f2946a278974428258f6ecd7ed--><g id="elem_657357f2946a278974428258f6ecd7ed"><rect fill="#F1F1F1" height="78.8906" rx="2.5" ry="2.5" style="stroke:#181818;stroke-width:0.5;" width="142" x="267" y="318.78"/><rect fill="#F1F1F1" height="10" style="stroke:#181818;stroke-width:0.5;" width="15" x="389" y="323.78"/><rect fill="#F1F1F1" height="2" style="stroke:#181818;stroke-width:0.5;" width="4" x="387" y="325.78"/><rect fill="#F1F1F1" height="2" style="stroke:#181818;stroke-width:0.5;" width="4" x="387" y="329.78"/><text fill="#000000" font-family="sans-serif" font-size="14" font-weight="bold" lengthAdjust="spacing" textLength="102" x="282" y="351.7751">test_settings</text><text fill="#000000" font-family="sans-serif" font-size="14" lengthAdjust="spacing" textLength="4" x="282" y="368.072">&#160;</text><text fill="#000000" font-family="sans-serif" font-size="14" lengthAdjust="spacing" textLength="4" x="282" y="384.3689">&#160;</text></g><!--entity 74d3d3d605c8576e073facc363afec63--><g id="elem_74d3d3d605c8576e073facc363afec63"><rect fill="#F1F1F1" height="78.8906" rx="2.5" ry="2.5" style="stroke:#181818;stroke-width:0.5;" width="80" x="444" y="318.78"/><rect fill="#F1F1F1" height="10" style="stroke:#181818;stroke-width:0.5;" width="15" x="504" y="323.78"/><rect fill="#F1F1F1" height="2" style="stroke:#181818;stroke-width:0.5;" width="4" x="502" y="325.78"/><rect fill="#F1F1F1" height="2" style="stroke:#181818;stroke-width:0.5;" width="4" x="502" y="329.78"/><text fill="#000000" font-family="sans-serif" font-size="14" font-weight="bold" lengthAdjust="spacing" textLength="40" x="459" y="351.7751">tests</text><text fill="#000000" font-family="sans-serif" font-size="14" lengthAdjust="spacing" textLength="4" x="459" y="368.072">&#160;</text><text fill="#000000" font-family="sans-serif" font-size="14" lengthAdjust="spacing" textLength="4" x="459" y="384.3689">&#160;</text></g><!--link f91ac9bfce549e2bdaca89d889f80ade to 1990cb79880525ed0375a33636ba8160--><g id="link_f91ac9bfce549e2bdaca89d889f80ade_1990cb79880525ed0375a33636ba8160"><path codeLine="53" d="M691.26,120.3 C693.3,138.96 695.0862,155.2757 697.1262,173.8857 " fill="none" id="f91ac9bfce549e2bdaca89d889f80ade-to-1990cb79880525ed0375a33636ba8160" style="stroke:#181818;stroke-width:1.0;"/><polygon fill="#181818" points="697.78,179.85,700.7755,170.4677,697.2352,174.8798,692.8231,171.3395,697.78,179.85" style="stroke:#181818;stroke-width:1.0;"/></g><!--link 74d3d3d605c8576e073facc363afec63 to 26f33f06e0cde4460b11341622df9b90--><g id="link_74d3d3d605c8576e073facc363afec63_26f33f06e0cde4460b11341622df9b90"><path codeLine="54" d="M506.98,397.89 C513.13,406.36 520.24,414.83 528,421.67 C554.84,445.34 585.0428,461.7204 613.6628,474.5204 " fill="none" id="74d3d3d605c8576e073facc363afec63-to-26f33f06e0cde4460b11341622df9b90" style="stroke:#181818;stroke-width:1.0;"/><polygon fill="#181818" points="619.14,476.97,612.5573,469.6441,614.5757,474.9287,609.2912,476.947,619.14,476.97" style="stroke:#181818;stroke-width:1.0;"/></g><!--link 1990cb79880525ed0375a33636ba8160 to 26f33f06e0cde4460b11341622df9b90--><g id="link_1990cb79880525ed0375a33636ba8160_26f33f06e0cde4460b11341622df9b90"><path codeLine="55" d="M705.34,259.01 C707.92,299.89 709.37,366.01 698,421.67 C695.55,433.68 693.4922,440.6728 688.8922,451.9728 " fill="none" id="1990cb79880525ed0375a33636ba8160-to-26f33f06e0cde4460b11341622df9b90" style="stroke:#181818;stroke-width:1.0;"/><polygon fill="#181818" points="686.63,457.53,693.7281,450.7024,688.5152,452.899,686.3185,447.6861,686.63,457.53" style="stroke:#181818;stroke-width:1.0;"/></g><!--link 1990cb79880525ed0375a33636ba8160 to e0848800f44bd4f4c9f372d93da60f75--><g id="link_1990cb79880525ed0375a33636ba8160_e0848800f44bd4f4c9f372d93da60f75"><path codeLine="56" d="M678.72,259.19 C667.55,277.85 657.2837,294.9831 646.1337,313.5931 " fill="none" id="1990cb79880525ed0375a33636ba8160-to-e0848800f44bd4f4c9f372d93da60f75" style="stroke:#181818;stroke-width:1.0;"/><polygon fill="#181818" points="643.05,318.74,651.1069,313.0755,645.6198,314.4509,644.2443,308.9638,643.05,318.74" style="stroke:#181818;stroke-width:1.0;"/></g><!--link 1990cb79880525ed0375a33636ba8160 to b88f5d725fc26261337f5f96d43c3f30--><g id="link_1990cb79880525ed0375a33636ba8160_b88f5d725fc26261337f5f96d43c3f30"><path codeLine="57" d="M728.12,259.19 C740.65,277.85 752.2827,295.1505 764.7927,313.7605 " fill="none" id="1990cb79880525ed0375a33636ba8160-to-b88f5d725fc26261337f5f96d43c3f30" style="stroke:#181818;stroke-width:1.0;"/><polygon fill="#181818" points="768.14,318.74,766.4387,309.0392,765.3506,314.5904,759.7994,313.5023,768.14,318.74" style="stroke:#181818;stroke-width:1.0;"/></g><!--link e0848800f44bd4f4c9f372d93da60f75 to 26f33f06e0cde4460b11341622df9b90--><g id="link_e0848800f44bd4f4c9f372d93da60f75_26f33f06e0cde4460b11341622df9b90"><path codeLine="58" d="M633.63,398.09 C640.17,416.74 645.9934,433.3584 652.5234,451.9684 " fill="none" id="e0848800f44bd4f4c9f372d93da60f75-to-26f33f06e0cde4460b11341622df9b90" style="stroke:#181818;stroke-width:1.0;"/><polygon fill="#181818" points="654.51,457.63,655.3045,447.8132,652.8545,452.912,647.7558,450.462,654.51,457.63" style="stroke:#181818;stroke-width:1.0;"/></g><!--link b88f5d725fc26261337f5f96d43c3f30 to 26f33f06e0cde4460b11341622df9b90--><g id="link_b88f5d725fc26261337f5f96d43c3f30_26f33f06e0cde4460b11341622df9b90"><path codeLine="59" d="M758.23,398.09 C741.06,416.74 724.6135,434.6055 707.4835,453.2155 " fill="none" id="b88f5d725fc26261337f5f96d43c3f30-to-26f33f06e0cde4460b11341622df9b90" style="stroke:#181818;stroke-width:1.0;"/><polygon fill="#181818" points="703.42,457.63,712.4582,453.7172,706.8062,453.9512,706.5722,448.2992,703.42,457.63" style="stroke:#181818;stroke-width:1.0;"/></g><!--SRC=[hPFDQbj138NtzobCbeRGcP4qFvk-I2b1evzmYMCRsqrAIzwzKvicf2xSBBeTEET8Ej_mPhDxVfo_pzlxQS_omFUskjchtnrigtOOptT7EppDOfzkLdnSKOGQkXAJM0mzGeDUcZVBYkArhtvEidlSxxQsFQrgwfoJGdTKH5At6853vDXJowMilaphzRV3vhXUJzFqTNfv6u7tyoNG4R42jL8af4QSOX99XJh5M4DCxmAzHPRMNOomMUhAmhLfhSrhOBM_0z-KiRKWOvDQ0oKo3L280JBapZNcS5O-pVPyBRLGSSZ2cBGhEafpA4aRAEVWXSxISSIPD_CFErmRQ8fz7EMtZ88uMyc8ehc7WAN4UZRW_VvQcR83UCWMH0qnZq8YOCmfgRVUBbC_xjJ-iN6lrKbB8fUKKuu0nSdRw14472xQ4nyV_aXVkpdPyNIyj0CTiqL1GcS26WXOOeGkCIWebdVjP2f0nLF3pAdKLX1JJLGzcsWnlIGEyu7SwJJGknwwuB05pO6aKXbx5t0M6JsncsHujNX3wcLQfE9MRpyl4Z0jPfzjbYgP5adxdpPBR7xGPecLQV4FV6ofHIO_PFCB]--></g></svg>