<svg xmlns="http://www.w3.org/2000/svg" xmlns:xlink="http://www.w3.org/1999/xlink" contentStyleType="text/css" height="684px" preserveAspectRatio="none" style="width:1411px;height:684px;background:#FFFFFF;" version="1.1" viewBox="0 0 1411 684" width="1411px" zoomAndPan="magnify"><defs/><g><!--cluster d77d5e503ad1439f585ac494268b351b--><g id="cluster_d77d5e503ad1439f585ac494268b351b"><polygon fill="none" points="16,24.15,26,14.15,422,14.15,422,566.67,412,576.67,16,576.67,16,24.15" style="stroke:#181818;stroke-width:1.0;"/><line style="stroke:#181818;stroke-width:1.0;" x1="412" x2="422" y1="24.15" y2="14.15"/><line style="stroke:#181818;stroke-width:1.0;" x1="16" x2="412" y1="24.15" y2="24.15"/><line style="stroke:#181818;stroke-width:1.0;" x1="412" x2="412" y1="24.15" y2="576.67"/><text fill="#000000" font-family="sans-serif" font-size="14" font-weight="bold" lengthAdjust="spacing" textLength="21" x="204.5" y="40.1451">Db</text></g><!--cluster 8a5da52ed126447d359e70c05721a8aa--><g id="cluster_8a5da52ed126447d359e70c05721a8aa"><polygon fill="none" points="446,16,456,6,852,6,852,566.67,842,576.67,446,576.67,446,16" style="stroke:#181818;stroke-width:1.0;"/><line style="stroke:#181818;stroke-width:1.0;" x1="842" x2="852" y1="16" y2="6"/><line style="stroke:#181818;stroke-width:1.0;" x1="446" x2="842" y1="16" y2="16"/><line style="stroke:#181818;stroke-width:1.0;" x1="842" x2="842" y1="16" y2="576.67"/><text fill="#000000" font-family="sans-serif" font-size="14" font-weight="bold" lengthAdjust="spacing" textLength="25" x="632.5" y="31.9951">Api</text></g><!--cluster a06be211ee1b949b0dc8cef92a4373a9--><g id="cluster_a06be211ee1b949b0dc8cef92a4373a9"><polygon fill="none" points="938,40.45,948,30.45,1144,30.45,1144,566.67,1134,576.67,938,576.67,938,40.45" style="stroke:#181818;stroke-width:1.0;"/><line style="stroke:#181818;stroke-width:1.0;" x1="1134" x2="1144" y1="40.45" y2="30.45"/><line style="stroke:#181818;stroke-width:1.0;" x1="938" x2="1134" y1="40.45" y2="40.45"/><line style="stroke:#181818;stroke-width:1.0;" x1="1134" x2="1134" y1="40.45" y2="576.67"/><text fill="#000000" font-family="sans-serif" font-size="14" font-weight="bold" lengthAdjust="spacing" textLength="67" x="1003.5" y="56.4451">Workers</text></g><!--cluster aedb75dfc563674e1263316b01879722--><g id="cluster_aedb75dfc563674e1263316b01879722"><polygon fill="none" points="1168,40.45,1178,30.45,1394,30.45,1394,187.93,1384,197.93,1168,197.93,1168,40.45" style="stroke:#181818;stroke-width:1.0;"/><line style="stroke:#181818;stroke-width:1.0;" x1="1384" x2="1394" y1="40.45" y2="30.45"/><line style="stroke:#181818;stroke-width:1.0;" x1="1168" x2="1384" y1="40.45" y2="40.45"/><line style="stroke:#181818;stroke-width:1.0;" x1="1384" x2="1384" y1="40.45" y2="197.93"/><text fill="#000000" font-family="sans-serif" font-size="14" font-weight="bold" lengthAdjust="spacing" textLength="73" x="1240.5" y="56.4451">Rabbitmq</text></g><!--entity 355aeb7ac3f8fa43e8d94fbf0e4b8d6c--><g id="elem_355aeb7ac3f8fa43e8d94fbf0e4b8d6c"><rect fill="#F1F1F1" height="144.0781" rx="2.5" ry="2.5" style="stroke:#181818;stroke-width:0.5;" width="375" x="31.5" y="54.15"/><rect fill="#F1F1F1" height="10" style="stroke:#181818;stroke-width:0.5;" width="15" x="386.5" y="59.15"/><rect fill="#F1F1F1" height="2" style="stroke:#181818;stroke-width:0.5;" width="4" x="384.5" y="61.15"/><rect fill="#F1F1F1" height="2" style="stroke:#181818;stroke-width:0.5;" width="4" x="384.5" y="65.15"/><text fill="#000000" font-family="sans-serif" font-size="14" font-weight="bold" lengthAdjust="spacing" textLength="20" x="46.5" y="87.1451">db</text><text fill="#000000" font-family="sans-serif" font-size="14" lengthAdjust="spacing" textLength="4" x="46.5" y="103.442">&#160;</text><text fill="#000000" font-family="sans-serif" font-size="14" lengthAdjust="spacing" textLength="113" x="46.5" y="119.7389">image: postgres</text><text fill="#000000" font-family="sans-serif" font-size="14" lengthAdjust="spacing" textLength="294" x="46.5" y="136.0357">environment: POSTGRES_NAME=postgres</text><text fill="#000000" font-family="sans-serif" font-size="14" lengthAdjust="spacing" textLength="292" x="46.5" y="152.3326">environment: POSTGRES_USER=postgres</text><text fill="#000000" font-family="sans-serif" font-size="14" lengthAdjust="spacing" textLength="335" x="46.5" y="168.6295">environment: POSTGRES_PASSWORD=postgres</text><text fill="#000000" font-family="sans-serif" font-size="14" lengthAdjust="spacing" textLength="4" x="46.5" y="184.9264">&#160;</text></g><!--entity d5baecb173d637b4e1f821d6b00b6f89--><g id="elem_d5baecb173d637b4e1f821d6b00b6f89"><rect fill="#F1F1F1" height="39.2969" rx="2.5" ry="2.5" style="stroke:#181818;stroke-width:0.5;" width="189" x="124.5" y="521.38"/><polygon fill="#F1F1F1" points="296.5,526.38,296.5,540.38,308.5,540.38,308.5,532.38,302.5,526.38,296.5,526.38" style="stroke:#181818;stroke-width:0.5;"/><line style="stroke:#181818;stroke-width:0.5;" x1="302.5" x2="302.5" y1="526.38" y2="532.38"/><line style="stroke:#181818;stroke-width:0.5;" x1="308.5" x2="302.5" y1="532.38" y2="532.38"/><text fill="#000000" font-family="sans-serif" font-size="14" lengthAdjust="spacing" textLength="159" x="134.5" y="547.3751">/var/lib/postgresql/data</text></g><!--entity 6e7a256bbe4c40aa0a7a8d9e47a95b28--><g id="elem_6e7a256bbe4c40aa0a7a8d9e47a95b28"><rect fill="#F1F1F1" height="160.375" rx="2.5" ry="2.5" style="stroke:#181818;stroke-width:0.5;" width="375" x="461.5" y="46"/><rect fill="#F1F1F1" height="10" style="stroke:#181818;stroke-width:0.5;" width="15" x="816.5" y="51"/><rect fill="#F1F1F1" height="2" style="stroke:#181818;stroke-width:0.5;" width="4" x="814.5" y="53"/><rect fill="#F1F1F1" height="2" style="stroke:#181818;stroke-width:0.5;" width="4" x="814.5" y="57"/><text fill="#000000" font-family="sans-serif" font-size="14" font-weight="bold" lengthAdjust="spacing" textLength="23" x="476.5" y="78.9951">api</text><text fill="#000000" font-family="sans-serif" font-size="14" lengthAdjust="spacing" textLength="4" x="476.5" y="95.292">&#160;</text><text fill="#000000" font-family="sans-serif" font-size="14" lengthAdjust="spacing" textLength="98" x="476.5" y="111.5889">image: pdf-api</text><text fill="#000000" font-family="sans-serif" font-size="14" lengthAdjust="spacing" textLength="118" x="476.5" y="127.8857">restart: on-failure</text><text fill="#000000" font-family="sans-serif" font-size="14" lengthAdjust="spacing" textLength="294" x="476.5" y="144.1826">environment: POSTGRES_NAME=postgres</text><text fill="#000000" font-family="sans-serif" font-size="14" lengthAdjust="spacing" textLength="292" x="476.5" y="160.4795">environment: POSTGRES_USER=postgres</text><text fill="#000000" font-family="sans-serif" font-size="14" lengthAdjust="spacing" textLength="335" x="476.5" y="176.7764">environment: POSTGRES_PASSWORD=postgres</text><text fill="#000000" font-family="sans-serif" font-size="14" lengthAdjust="spacing" textLength="4" x="476.5" y="193.0732">&#160;</text></g><!--entity 5f21627eb362edf555b94b18dae4979f--><g id="elem_5f21627eb362edf555b94b18dae4979f"><ellipse cx="784" cy="296.38" fill="#F1F1F1" rx="8" ry="8" style="stroke:#181818;stroke-width:0.5;"/><text fill="#000000" font-family="sans-serif" font-size="14" lengthAdjust="spacing" textLength="36" x="766" y="326.3751">8000</text></g><!--entity 6742b1a6d6df4b7832d8dc2ce6a692f5--><g id="elem_6742b1a6d6df4b7832d8dc2ce6a692f5"><rect fill="#F1F1F1" height="39.2969" rx="2.5" ry="2.5" style="stroke:#181818;stroke-width:0.5;" width="65" x="717.5" y="521.38"/><polygon fill="#F1F1F1" points="765.5,526.38,765.5,540.38,777.5,540.38,777.5,532.38,771.5,526.38,765.5,526.38" style="stroke:#181818;stroke-width:0.5;"/><line style="stroke:#181818;stroke-width:0.5;" x1="771.5" x2="771.5" y1="526.38" y2="532.38"/><line style="stroke:#181818;stroke-width:0.5;" x1="777.5" x2="771.5" y1="532.38" y2="532.38"/><text fill="#000000" font-family="sans-serif" font-size="14" lengthAdjust="spacing" textLength="35" x="727.5" y="547.3751">/data</text></g><!--entity e5897ec3044bcb5e5bb2d5e0303d5dc6--><g id="elem_e5897ec3044bcb5e5bb2d5e0303d5dc6"><rect fill="#F1F1F1" height="111.4844" rx="2.5" ry="2.5" style="stroke:#181818;stroke-width:0.5;" width="173" x="954.5" y="70.45"/><rect fill="#F1F1F1" height="10" style="stroke:#181818;stroke-width:0.5;" width="15" x="1107.5" y="75.45"/><rect fill="#F1F1F1" height="2" style="stroke:#181818;stroke-width:0.5;" width="4" x="1105.5" y="77.45"/><rect fill="#F1F1F1" height="2" style="stroke:#181818;stroke-width:0.5;" width="4" x="1105.5" y="81.45"/><text fill="#000000" font-family="sans-serif" font-size="14" font-weight="bold" lengthAdjust="spacing" textLength="66" x="969.5" y="103.4451">workers</text><text fill="#000000" font-family="sans-serif" font-size="14" lengthAdjust="spacing" textLength="4" x="969.5" y="119.742">&#160;</text><text fill="#000000" font-family="sans-serif" font-size="14" lengthAdjust="spacing" textLength="133" x="969.5" y="136.0389">image: pdf-workers</text><text fill="#000000" font-family="sans-serif" font-size="14" lengthAdjust="spacing" textLength="118" x="969.5" y="152.3357">restart: on-failure</text><text fill="#000000" font-family="sans-serif" font-size="14" lengthAdjust="spacing" textLength="4" x="969.5" y="168.6326">&#160;</text></g><!--entity 20e65e90b44f56ddb617252845249b96--><g id="elem_20e65e90b44f56ddb617252845249b96"><rect fill="#F1F1F1" height="39.2969" rx="2.5" ry="2.5" style="stroke:#181818;stroke-width:0.5;" width="65" x="968.5" y="521.38"/><polygon fill="#F1F1F1" points="1016.5,526.38,1016.5,540.38,1028.5,540.38,1028.5,532.38,1022.5,526.38,1016.5,526.38" style="stroke:#181818;stroke-width:0.5;"/><line style="stroke:#181818;stroke-width:0.5;" x1="1022.5" x2="1022.5" y1="526.38" y2="532.38"/><line style="stroke:#181818;stroke-width:0.5;" x1="1028.5" x2="1022.5" y1="532.38" y2="532.38"/><text fill="#000000" font-family="sans-serif" font-size="14" lengthAdjust="spacing" textLength="35" x="978.5" y="547.3751">/data</text></g><!--entity 4db5743728b42fdb09220a41ee031f8b--><g id="elem_4db5743728b42fdb09220a41ee031f8b"><rect fill="#F1F1F1" height="111.4844" rx="2.5" ry="2.5" style="stroke:#181818;stroke-width:0.5;" width="195" x="1183.5" y="70.45"/><rect fill="#F1F1F1" height="10" style="stroke:#181818;stroke-width:0.5;" width="15" x="1358.5" y="75.45"/><rect fill="#F1F1F1" height="2" style="stroke:#181818;stroke-width:0.5;" width="4" x="1356.5" y="77.45"/><rect fill="#F1F1F1" height="2" style="stroke:#181818;stroke-width:0.5;" width="4" x="1356.5" y="81.45"/><text fill="#000000" font-family="sans-serif" font-size="14" font-weight="bold" lengthAdjust="spacing" textLength="70" x="1198.5" y="103.4451">rabbitmq</text><text fill="#000000" font-family="sans-serif" font-size="14" lengthAdjust="spacing" textLength="4" x="1198.5" y="119.742">&#160;</text><text fill="#000000" font-family="sans-serif" font-size="14" lengthAdjust="spacing" textLength="155" x="1198.5" y="136.0389">image: rabbitmq:latest</text><text fill="#000000" font-family="sans-serif" font-size="14" lengthAdjust="spacing" textLength="118" x="1198.5" y="152.3357">restart: on-failure</text><text fill="#000000" font-family="sans-serif" font-size="14" lengthAdjust="spacing" textLength="4" x="1198.5" y="168.6326">&#160;</text></g><!--entity 9882ad60b8ffd8fcaf975b5c38b8d684--><g id="elem_9882ad60b8ffd8fcaf975b5c38b8d684"><rect fill="#F1F1F1" height="39.2969" rx="2.5" ry="2.5" style="stroke:#181818;stroke-width:0.5;" width="83" x="177.5" y="639.67"/><polygon fill="#F1F1F1" points="243.5,644.67,243.5,658.67,255.5,658.67,255.5,650.67,249.5,644.67,243.5,644.67" style="stroke:#181818;stroke-width:0.5;"/><line style="stroke:#181818;stroke-width:0.5;" x1="249.5" x2="249.5" y1="644.67" y2="650.67"/><line style="stroke:#181818;stroke-width:0.5;" x1="255.5" x2="249.5" y1="650.67" y2="650.67"/><text fill="#000000" font-family="sans-serif" font-size="14" lengthAdjust="spacing" textLength="53" x="187.5" y="665.6651">db-data</text></g><!--entity b86486e19bf8ab7f6de7806dc2438fad--><g id="elem_b86486e19bf8ab7f6de7806dc2438fad"><rect fill="#F1F1F1" height="39.2969" rx="2.5" ry="2.5" style="stroke:#181818;stroke-width:0.5;" width="69" x="794.5" y="639.67"/><polygon fill="#F1F1F1" points="846.5,644.67,846.5,658.67,858.5,658.67,858.5,650.67,852.5,644.67,846.5,644.67" style="stroke:#181818;stroke-width:0.5;"/><line style="stroke:#181818;stroke-width:0.5;" x1="852.5" x2="852.5" y1="644.67" y2="650.67"/><line style="stroke:#181818;stroke-width:0.5;" x1="858.5" x2="852.5" y1="650.67" y2="650.67"/><text fill="#000000" font-family="sans-serif" font-size="14" lengthAdjust="spacing" textLength="39" x="804.5" y="665.6651">./data</text></g><!--entity 1624c420083928ef3e240dd88f2e52f0--><g id="elem_1624c420083928ef3e240dd88f2e52f0"><ellipse cx="895" cy="431.38" fill="#F1F1F1" rx="8" ry="8" style="stroke:#181818;stroke-width:0.5;"/><text fill="#000000" font-family="sans-serif" font-size="14" lengthAdjust="spacing" textLength="36" x="877" y="461.3751">8000</text></g><!--link d5baecb173d637b4e1f821d6b00b6f89 to 9882ad60b8ffd8fcaf975b5c38b8d684--><g id="link_d5baecb173d637b4e1f821d6b00b6f89_9882ad60b8ffd8fcaf975b5c38b8d684"><path codeLine="50" d="M219,560.97 C219,582.59 219,617.76 219,639.39 " fill="none" id="d5baecb173d637b4e1f821d6b00b6f89-9882ad60b8ffd8fcaf975b5c38b8d684" style="stroke:#181818;stroke-width:1.0;"/><text fill="#000000" font-family="sans-serif" font-size="13" lengthAdjust="spacing" textLength="14" x="220" y="605.7369">rw</text></g><!--link 355aeb7ac3f8fa43e8d94fbf0e4b8d6c to d5baecb173d637b4e1f821d6b00b6f89--><g id="link_355aeb7ac3f8fa43e8d94fbf0e4b8d6c_d5baecb173d637b4e1f821d6b00b6f89"><path codeLine="51" d="M219,198.63 C219,296.02 219,458.79 219,515.11 " fill="none" id="355aeb7ac3f8fa43e8d94fbf0e4b8d6c-to-d5baecb173d637b4e1f821d6b00b6f89" style="stroke:#181818;stroke-width:1.0;stroke-dasharray:7.0,7.0;"/><polygon fill="#181818" points="219,521.11,223,512.11,219,516.11,215,512.11,219,521.11" style="stroke:#181818;stroke-width:1.0;"/><text fill="#000000" font-family="sans-serif" font-size="13" lengthAdjust="spacing" textLength="23" x="220" y="368.4469">use</text></g><!--link 6e7a256bbe4c40aa0a7a8d9e47a95b28 to 5f21627eb362edf555b94b18dae4979f--><g id="link_6e7a256bbe4c40aa0a7a8d9e47a95b28_5f21627eb362edf555b94b18dae4979f"><path codeLine="52" d="M712.94,206.85 C739.11,239.45 766,272.95 777.8,287.66 " fill="none" id="6e7a256bbe4c40aa0a7a8d9e47a95b28-5f21627eb362edf555b94b18dae4979f" style="stroke:#181818;stroke-width:1.0;"/></g><!--link 5f21627eb362edf555b94b18dae4979f to 1624c420083928ef3e240dd88f2e52f0--><g id="link_5f21627eb362edf555b94b18dae4979f_1624c420083928ef3e240dd88f2e52f0"><path codeLine="53" d="M790.61,305.3 C810.4,329.01 869,399.23 888.56,422.66 " fill="none" id="5f21627eb362edf555b94b18dae4979f-1624c420083928ef3e240dd88f2e52f0" style="stroke:#181818;stroke-width:1.0;"/></g><!--link 6742b1a6d6df4b7832d8dc2ce6a692f5 to b86486e19bf8ab7f6de7806dc2438fad--><g id="link_6742b1a6d6df4b7832d8dc2ce6a692f5_b86486e19bf8ab7f6de7806dc2438fad"><path codeLine="54" d="M762.87,560.97 C777.56,582.59 801.45,617.76 816.14,639.39 " fill="none" id="6742b1a6d6df4b7832d8dc2ce6a692f5-b86486e19bf8ab7f6de7806dc2438fad" style="stroke:#181818;stroke-width:1.0;"/><text fill="#000000" font-family="sans-serif" font-size="13" lengthAdjust="spacing" textLength="14" x="795" y="605.7369">rw</text></g><!--link 6e7a256bbe4c40aa0a7a8d9e47a95b28 to 6742b1a6d6df4b7832d8dc2ce6a692f5--><g id="link_6e7a256bbe4c40aa0a7a8d9e47a95b28_6742b1a6d6df4b7832d8dc2ce6a692f5"><path codeLine="55" d="M668.47,206.79 C692.55,305.2 730.5649,460.5617 743.9549,515.3217 " fill="none" id="6e7a256bbe4c40aa0a7a8d9e47a95b28-to-6742b1a6d6df4b7832d8dc2ce6a692f5" style="stroke:#181818;stroke-width:1.0;stroke-dasharray:7.0,7.0;"/><polygon fill="#181818" points="745.38,521.15,747.1278,511.4575,744.1924,516.2931,739.3568,513.3577,745.38,521.15" style="stroke:#181818;stroke-width:1.0;"/><text fill="#000000" font-family="sans-serif" font-size="13" lengthAdjust="spacing" textLength="23" x="709" y="368.4469">use</text></g><!--link 20e65e90b44f56ddb617252845249b96 to b86486e19bf8ab7f6de7806dc2438fad--><g id="link_20e65e90b44f56ddb617252845249b96_b86486e19bf8ab7f6de7806dc2438fad"><path codeLine="56" d="M972.98,560.97 C941.09,582.53 889.29,617.55 857.29,639.19 " fill="none" id="20e65e90b44f56ddb617252845249b96-b86486e19bf8ab7f6de7806dc2438fad" style="stroke:#181818;stroke-width:1.0;"/><text fill="#000000" font-family="sans-serif" font-size="13" lengthAdjust="spacing" textLength="14" x="926" y="605.7369">rw</text></g><!--link e5897ec3044bcb5e5bb2d5e0303d5dc6 to 20e65e90b44f56ddb617252845249b96--><g id="link_e5897ec3044bcb5e5bb2d5e0303d5dc6_20e65e90b44f56ddb617252845249b96"><path codeLine="57" d="M1035.69,182.01 C1026.64,275.45 1009.2084,455.2679 1003.4184,515.0479 " fill="none" id="e5897ec3044bcb5e5bb2d5e0303d5dc6-to-20e65e90b44f56ddb617252845249b96" style="stroke:#181818;stroke-width:1.0;stroke-dasharray:7.0,7.0;"/><polygon fill="#181818" points="1002.84,521.02,1007.689,512.4475,1003.322,516.0433,999.7263,511.6763,1002.84,521.02" style="stroke:#181818;stroke-width:1.0;"/><text fill="#000000" font-family="sans-serif" font-size="13" lengthAdjust="spacing" textLength="23" x="1019" y="368.4469">use</text></g><!--SRC=[nPHBYriv48NtzrTSlCeqsAstIeO9DAIPrIIXdP1524ELgjHSuaVdsaa7Glvxr6wtOmyPnAoobKgbEf_E4IwNc_lLy7LOttRh3Ki_UK6J7hSznyXUlBB8sjbKF7ZCBZaJWApNr7_h-hnPtMtMijxrrdiKYfXjWOBE2d1oXOeIHy0Xz- -xYmkcYukk6rPuA_F-RhFTtOwoxMJzPHWtwrLjC-zVlrgy-UlcUl7Fowk_h_zirBnTND-qQbvVBHRlNjsy-5dNVUXmt0q5ywwVN7x1yN8vqENJzgVb9UCE7n5uGicae-LW8pdH1OpcG4fHA92wxmTaLtV3_W2WP_H6M9lWN6JhaqILbOz68o2UCmiIqVX092uxXQWmOiKcBcBoP63F3E-6KsXSfdMbguFkgeXvlrbF2mxBpwFy3exF_kWde9JQY_V5w62Ya0sLGF7UKtAaWL5SYgcSKZyY3j4PqXWuS74KmHe6pYPBm91CyKV4xpRZHnct-qEe0edHMaJNAn8fpf2b95ED5oscSypY8KN9LZb7cQgbYKnrjhBAikSSzfZl7zl_2_LXzPUupsrq56IK12z9aNF51sOAEXflm7bJ9qtXAEW6YORTwjEZ8c6AdalsmLOaKlrZhQv6qn1JDEPSaMFoiKerGCuK9fMCKUWg3sMhHMclQ3pqFv7qj3HVugug-YzPtq-4CKsFqXA0GGwAe1I6ah6awCbd2myH1tToRFOJ245m44GdAe0KIs29e49zP6VhLy7d9geEgc4mIe5D1gHOCKun0nGZtXJLjJBPJtdQdBIVzvFnVj8rVwtPZ6UpvysFuA7VvwrCkcQa7wPh1gLLiE_I9DMArhvBwtMUI3M57KWrBtqYrSh9_vgk6V73TCrB3zFz0000]--></g></svg>